<?xml version="1.0" encoding="UTF-8"?>
<svg width="64" height="64" viewBox="0 0 64 64" fill="none" xmlns="http://www.w3.org/2000/svg">
    <circle cx="32" cy="32" r="30" fill="#2c5aa0"/>
    <path d="M20 32C20 25.5 30 12 32 12C34 12 44 25.5 44 32C44 38.5 38.6 44 32 44C25.4 44 20 38.5 20 32Z" fill="#ff6b6b"/>
    <path d="M32 38C35.3137 38 38 35.3137 38 32C38 28.6863 35.3137 26 32 26C28.6863 26 26 28.6863 26 32C26 35.3137 28.6863 38 32 38Z" fill="white"/>
    <path d="M27 32C27 29.2386 29.2386 27 32 27C34.7614 27 37 29.2386 37 32C37 34.7614 34.7614 37 32 37C29.2386 37 27 34.7614 27 32Z" fill="#2c5aa0"/>
    <path d="M32 34C33.1046 34 34 33.1046 34 32C34 30.8954 33.1046 30 32 30C30.8954 30 30 30.8954 30 32C30 33.1046 30.8954 34 32 34Z" fill="white"/>
    <path d="M28 25C28.5523 25 29 24.5523 29 24C29 23.4477 28.5523 23 28 23C27.4477 23 27 23.4477 27 24C27 24.5523 27.4477 25 28 25Z" fill="white"/>
    <path d="M36 25C36.5523 25 37 24.5523 37 24C37 23.4477 36.5523 23 36 23C35.4477 23 35 23.4477 35 24C35 24.5523 35.4477 25 36 25Z" fill="white"/>
</svg>
